<svg width="80" height="80" viewBox="0 0 80 80" fill="none" xmlns="http://www.w3.org/2000/svg">
<path d="M80 40.0798C80 62.1271 62.0914 80 40 80C17.9086 80 1.06585e-08 62.1271 1.06585e-08 40.0798C1.06585e-08 18.0325 17.9086 0.159681 40 0.159681C62.0914 0.159681 80 18.0325 80 40.0798Z" fill="#353535"/>
<path d="M76 40.0798C76 59.9224 59.8823 76.008 40 76.008C20.1178 76.008 4 59.9224 4 40.0798C4 20.2373 20.1178 4.1517 40 4.1517C59.8823 4.1517 76 20.2373 76 40.0798Z" fill="#20231F"/>
<path d="M70.4 40.0798C70.4 56.8358 56.7895 70.4192 40 70.4192C23.2105 70.4192 9.6 56.8358 9.6 40.0798C9.6 23.3239 23.2105 9.74052 40 9.74052C56.7895 9.74052 70.4 23.3239 70.4 40.0798Z" fill="#835E37"/>
<path d="M27.2173 28.5795L26.8173 32.8908C26.8173 32.8908 1.37665 8.69921 0.257257 7.34194C-0.862135 5.98466 1.93813 2.71122 3.53726 4.06848C5.13639 5.42575 27.2173 28.5795 27.2173 28.5795Z" fill="#47382D"/>
<path d="M70.4 40.0798C70.4 56.8358 56.7895 70.4192 40 70.4192C34.6252 70.4192 29.5763 69.0271 25.1953 66.5846C17.1759 54.7421 18.778 38.2761 29.697 27.7008C39.2376 18.4606 53.069 16.4508 64.1609 21.6638C68.0748 26.7704 70.4 33.1541 70.4 40.0798Z" fill="#A57D48"/>
<path d="M51.4856 44.3775C54.661 47.5466 55.9731 51.3752 54.4163 52.9289C52.8594 54.4827 49.0231 53.1732 45.8477 50.0041C42.6723 46.835 41.3602 43.0064 42.9171 41.4527C44.4739 39.8989 48.3102 41.2084 51.4856 44.3775Z" fill="#7B6A5B"/>
<path d="M55.0056 40.5451C58.181 43.7142 59.4931 47.5428 57.9363 49.0966C56.3794 50.6503 52.5431 49.3409 49.3677 46.1718C46.1923 43.0027 44.8802 39.1741 46.4371 37.6203C47.9939 36.0666 51.8302 37.3761 55.0056 40.5451Z" fill="#5E4E42"/>
<path d="M58.6856 37.3515C61.861 40.5206 63.1731 44.3492 61.6163 45.903C60.0594 47.4567 56.2231 46.1473 53.0477 42.9782C49.8723 39.8091 48.5602 35.9805 50.1171 34.4267C51.6739 32.873 55.5102 34.1825 58.6856 37.3515Z" fill="#524337"/>
<path d="M62.2056 33.9317C65.381 37.1007 66.6931 40.9293 65.1363 42.4831C63.5794 44.0369 59.7431 42.7274 56.5677 39.5583C53.3923 36.3892 52.0802 32.5606 53.6371 31.0068C55.1939 29.4531 59.0302 30.7626 62.2056 33.9317Z" fill="#47382D"/>
<path d="M27.6978 26.5835L29.2178 23.2302C29.2178 23.2302 8.73753 1.42401 6.89783 0.236181C5.05813 -0.951654 2.49788 2.66836 3.77783 3.82899C5.05777 4.98963 27.6978 26.5835 27.6978 26.5835Z" fill="#47382D"/>
<path d="M14.9781 36.803C14.9781 37.4645 14.4409 38.0006 13.7781 38.0006C13.1154 38.0006 12.5781 37.4645 12.5781 36.803C12.5781 36.1416 13.1154 35.6054 13.7781 35.6054C14.4409 35.6054 14.9781 36.1416 14.9781 36.803Z" fill="#3E4824"/>
<path d="M19.3781 29.9368C19.3781 30.5982 19.3781 31.0545 17.1381 31.0545C14.6581 31.0545 14.6581 30.5982 14.6581 29.9368C14.6581 29.2753 14.6581 28.7392 17.1381 28.7391C19.3781 28.7391 19.3781 29.2753 19.3781 29.9368Z" fill="#3E4824"/>
<path d="M17.3478 50.8011C16.8791 51.2688 16.5558 51.5915 14.9719 50.0107C13.2183 48.2606 13.5416 47.9379 14.0102 47.4702C14.4789 47.0025 14.8587 46.6234 16.6124 48.3735C18.1963 49.9543 17.8164 50.3334 17.3478 50.8011Z" fill="#3E4824"/>
<path d="M48.8678 65.1724C48.3991 65.6401 48.0758 65.9627 46.4919 64.382C44.7383 62.6319 45.0616 62.3092 45.5302 61.8415C45.9989 61.3738 46.3787 60.9947 48.1324 62.7448C49.7163 64.3255 49.3364 64.7047 48.8678 65.1724Z" fill="#3E4824"/>
<path d="M61.9878 55.4319C61.5191 55.8995 61.1958 56.2222 59.6119 54.6415C57.8583 52.8913 58.1816 52.5687 58.6502 52.101C59.1189 51.6333 59.4987 51.2541 61.2524 53.0043C62.8363 54.585 62.4564 54.9642 61.9878 55.4319Z" fill="#3E4824"/>
<path d="M52.9871 19.9675C37.804 10.1361 21.8794 23.5078 26.607 39.0124H29.0957C23.5539 25.9225 38.8504 12.4114 51.3761 21.8776C51.3761 21.8776 51.5953 22.7721 51.263 23.1417C50.9453 23.4948 50.0754 23.4226 50.0754 23.4226C37.5781 15.5855 25.3069 28.5349 32.3756 40.5011C32.3756 40.5011 35.401 41.709 37.0126 40.5011C38.6242 39.2932 38.1436 36.6528 38.1436 36.6528C35.5423 32.6079 37.8043 27.4394 44.053 27.8888C45.8845 28.8584 44.6978 30.0368 44.053 29.9675C39.7795 28.6382 37.7107 34.0719 40.4338 35.8944C40.7987 36.3619 42.5525 35.9012 42.1303 34.6584C41.7081 33.4157 40.4338 32.0461 43.4875 32.327C46.5411 32.6079 48.7748 27.8046 45.0991 25.8664C41.4234 23.9282 31.7535 28.3944 35.8251 37.4955C35.8251 37.4955 36.2209 38.3663 35.6554 38.7595C35.0899 39.1528 34.2134 38.6753 34.2134 38.6753C28.4436 29.6023 38.9635 18.1979 48.7465 25.4169C48.7465 25.4169 51.6588 26.4282 53.2705 24.2933C54.8821 22.1585 52.9871 19.9675 52.9871 19.9675Z" fill="#BFA06F"/>
<path d="M16.5781 43.1903C16.5781 43.8517 16.0409 44.3879 15.3781 44.3879C14.7154 44.3879 14.1781 43.8517 14.1781 43.1903C14.1781 42.5288 14.7154 41.9927 15.3781 41.9927C16.0409 41.9927 16.5781 42.5288 16.5781 43.1903Z" fill="#3E4824"/>
<path d="M60.2581 25.9448C60.2581 26.6062 59.7209 27.1424 59.0581 27.1424C58.3954 27.1424 57.8581 26.6062 57.8581 25.9448C57.8581 25.2833 58.3954 24.7471 59.0581 24.7471C59.7209 24.7471 60.2581 25.2833 60.2581 25.9448Z" fill="#3E4824"/>
<path d="M42.8503 43.1594C47.6616 47.9611 47.6616 55.7461 42.8503 60.5478C38.0391 65.3494 30.2385 65.3494 25.4272 60.5478C20.616 55.7461 17.2786 44.63 22.0899 39.8283C26.9012 35.0267 38.0391 38.3578 42.8503 43.1594Z" fill="#EEE9D3"/>
<path d="M41.3781 51.8929C41.3781 55.8614 38.1546 59.0785 34.1781 59.0785C30.2017 59.0785 26.9781 55.8614 26.9781 51.8929C26.9781 47.9243 30.2017 44.7072 34.1781 44.7072C38.1546 44.7072 41.3781 47.9243 41.3781 51.8929Z" fill="#E0D1A0"/>
<path d="M57.0581 58.3599C57.0581 59.0213 56.5209 59.5575 55.8581 59.5575C55.1954 59.5575 54.6581 59.0213 54.6581 58.3599C54.6581 57.6985 55.1954 57.1623 55.8581 57.1623C56.5209 57.1623 57.0581 57.6985 57.0581 58.3599Z" fill="#3E4824"/>
<path d="M52.2581 61.7132C52.2581 62.3746 51.7209 62.9108 51.0581 62.9108C50.3954 62.9108 49.8581 62.3746 49.8581 61.7132C49.8581 61.0518 50.3954 60.5156 51.0581 60.5156C51.7209 60.5156 52.2581 61.0518 52.2581 61.7132Z" fill="#3E4824"/>
<path d="M21.6981 34.0885C21.6981 34.7499 21.1609 35.2861 20.4981 35.2861C19.8354 35.2861 19.2981 34.7499 19.2981 34.0885C19.2981 33.427 19.8354 32.8909 20.4981 32.8909C21.1609 32.8909 21.6981 33.427 21.6981 34.0885Z" fill="#3E4824"/>
</svg>
