<svg width="20" height="20" viewBox="0 0 20 20" fill="none" xmlns="http://www.w3.org/2000/svg">
<path d="M12.3078 9.17159C12.3078 10.4464 11.2744 11.4798 9.99959 11.4798C8.7248 11.4798 7.69138 10.4464 7.69138 9.17159C7.69138 7.89681 8.7248 6.86339 9.99959 6.86339C11.2744 6.86339 12.3078 7.89681 12.3078 9.17159ZM9.99959 11.9798C11.5505 11.9798 12.8078 10.7225 12.8078 9.17159C12.8078 7.62066 11.5505 6.36339 9.99959 6.36339C8.44866 6.36339 7.19138 7.62066 7.19138 9.17159C7.19138 10.7225 8.44866 11.9798 9.99959 11.9798ZM16.4214 9.17164C16.4214 11.2714 15.2928 13.054 13.9484 14.4308C12.6061 15.8055 11.0752 16.7477 10.3333 17.1623C10.1239 17.2792 9.87564 17.2792 9.66627 17.1623C8.92431 16.7477 7.39344 15.8055 6.05112 14.4308C4.70675 13.054 3.57812 11.2714 3.57812 9.17164C3.57812 5.32033 6.68482 2.75 9.99976 2.75C13.431 2.75 16.4214 5.31756 16.4214 9.17164Z" stroke="#20231F" stroke-width="0.5"/>
</svg>
