<svg width="76" height="25" viewBox="0 0 76 25" fill="none" xmlns="http://www.w3.org/2000/svg">
<path d="M20.2528 7.07979C20.3969 6.98741 20.5613 6.93178 20.732 6.91818C20.9251 6.90278 21.1186 6.94178 21.2912 7.03085C21.4638 7.11992 21.6087 7.25559 21.7099 7.42288C21.8111 7.59016 21.8647 7.78253 21.8647 7.97873H23.4401C23.4401 7.48824 23.3062 7.00731 23.0532 6.5891C22.8002 6.1709 22.0064 5.60903 22.0064 5.60903C22.0064 5.60903 21.0911 5.28887 20.6084 5.32735C20.3818 5.34541 20.1596 5.3931 19.9471 5.46842C20.1 5.99424 20.2023 6.53387 20.2528 7.07979Z" fill="#2D2D2D"/>
<path d="M19.5881 4.46864C19.8892 4.36067 20.2045 4.29243 20.526 4.2668C21.2018 4.21292 21.8792 4.3494 22.4833 4.66115C23.0873 4.9729 23.5945 5.44776 23.9487 6.03325C24.3029 6.61874 24.4904 7.29205 24.4904 7.97873H26.0658C26.0658 6.99776 25.798 6.03589 25.2919 5.19948C24.7859 4.36306 24.0614 3.68468 23.1985 3.23933C22.3356 2.79398 21.3679 2.59901 20.4024 2.67597C19.8548 2.71963 19.32 2.84979 18.8167 3.05949C19.1167 3.50257 19.3751 3.9743 19.5881 4.46864Z" fill="#2D2D2D"/>
<path d="M18.1472 2.1957C18.8283 1.87336 19.564 1.67569 20.32 1.61542C21.4786 1.52307 22.6398 1.75703 23.6753 2.29145C24.7108 2.82587 25.5802 3.63993 26.1874 4.64363C26.7947 5.64733 27.116 6.80156 27.116 7.97873H28.6915C28.6915 6.50727 28.2897 5.06448 27.5307 3.80986C26.7717 2.55523 25.6849 1.53766 24.3905 0.869632C23.0961 0.201606 21.6446 -0.09085 20.1964 0.024599C19.0361 0.117096 17.9141 0.468545 16.9094 1.04944C17.2338 1.2944 17.5409 1.56332 17.8283 1.8544C17.9378 1.9653 18.0441 2.07912 18.1472 2.1957Z" fill="#2D2D2D"/>
<path d="M26.8939 20.3262C29.8484 17.3336 31.5082 13.2747 31.5082 9.04255L0 9.04256C6.30898e-07 13.2747 1.6598 17.3336 4.61427 20.3262C5.87074 21.5989 7.3176 22.6344 8.88703 23.4043H8.66476C8.22972 23.4043 7.87706 23.7615 7.87706 24.2021C7.87706 24.6428 8.22972 25 8.66476 25H22.8435C23.2785 25 23.6312 24.6428 23.6312 24.2021C23.6312 23.7615 23.2785 23.4043 22.8435 23.4043H22.6212C24.1906 22.6344 25.6375 21.5989 26.8939 20.3262Z" fill="#2D2D2D"/>
<path d="M3.4659 7.97872C3.4659 6.93094 3.66965 5.89342 4.06551 4.9254C4.46137 3.95737 5.04159 3.07781 5.77304 2.33691C6.50449 1.59602 7.37285 1.00831 8.32854 0.607344C9.28423 0.206376 10.3085 0 11.343 0C12.3774 0 13.4017 0.206376 14.3574 0.607344C15.3131 1.00831 16.1814 1.59602 16.9129 2.33691C17.6443 3.07781 18.2246 3.95738 18.6204 4.9254C19.0163 5.89342 19.22 6.93094 19.22 7.97872H17.6446C17.6446 7.1405 17.4816 6.31048 17.1649 5.53606C16.8482 4.76165 16.3841 4.05799 15.7989 3.46528C15.2137 2.87256 14.519 2.40239 13.7545 2.08162C12.9899 1.76085 12.1705 1.59574 11.343 1.59574C10.5154 1.59574 9.69598 1.76085 8.93143 2.08162C8.16687 2.40239 7.47219 2.87256 6.88702 3.46528C6.30186 4.05799 5.83769 4.76164 5.521 5.53606C5.20431 6.31048 5.04132 7.1405 5.04132 7.97872H3.4659Z" fill="#2D2D2D"/>
<path d="M8.71727 7.97872C8.71727 7.62946 8.78519 7.28362 8.91714 6.96095C9.0491 6.63827 9.2425 6.34508 9.48632 6.09812C9.73014 5.85116 10.0196 5.65525 10.3382 5.5216C10.6567 5.38794 10.9981 5.31915 11.343 5.31915C11.6878 5.31915 12.0292 5.38794 12.3478 5.5216C12.6663 5.65525 12.9558 5.85116 13.1996 6.09812C13.4434 6.34508 13.6368 6.63827 13.7688 6.96095C13.9007 7.28362 13.9686 7.62946 13.9686 7.97872H12.3932C12.3932 7.83902 12.3661 7.70068 12.3133 7.57161C12.2605 7.44254 12.1831 7.32527 12.0856 7.22648C11.9881 7.1277 11.8723 7.04934 11.7449 6.99587C11.6175 6.94241 11.4809 6.91489 11.343 6.91489C11.205 6.91489 11.0685 6.94241 10.941 6.99587C10.8136 7.04934 10.6978 7.1277 10.6003 7.22648C10.5028 7.32527 10.4254 7.44254 10.3726 7.57161C10.3199 7.70068 10.2927 7.83902 10.2927 7.97872H8.71727Z" fill="#2D2D2D"/>
<path d="M6.49133 5.94317C6.22742 6.58852 6.09159 7.2802 6.09159 7.97872H7.667C7.667 7.48976 7.76208 7.00558 7.94682 6.55384C8.13155 6.10209 8.40232 5.69163 8.74366 5.34588C9.08501 5.00013 9.49024 4.72587 9.93623 4.53875C10.3822 4.35163 10.8602 4.25532 11.343 4.25532C11.8257 4.25532 12.3037 4.35163 12.7497 4.53875C13.1957 4.72587 13.6009 5.00013 13.9423 5.34588C14.2836 5.69163 14.5544 6.10209 14.7391 6.55384C14.9238 7.00558 15.0189 7.48976 15.0189 7.97872H16.5943C16.5943 7.2802 16.4585 6.58852 16.1946 5.94317C15.9307 5.29782 15.5439 4.71145 15.0562 4.21752C14.5686 3.72359 13.9897 3.33178 13.3526 3.06447C12.7154 2.79716 12.0326 2.65957 11.343 2.65957C10.6533 2.65957 9.97047 2.79716 9.33335 3.06447C8.69622 3.33178 8.11731 3.72359 7.62968 4.21752C7.14205 4.71145 6.75523 5.29782 6.49133 5.94317Z" fill="#2D2D2D"/>
<path d="M35.0069 23.3112V16.3763H33.8516V15.2194H40.9344V18.0053H39.8054V16.3763H36.3854V19.1157H39.3328V20.2726H36.3854V23.3112H37.5539V24.4681H33.8516V23.3112H35.0069Z" fill="#20231F"/>
<path d="M40.4618 21.25C40.4618 20.2571 40.7856 19.4437 41.4333 18.8098C42.081 18.1715 42.8709 17.8524 43.803 17.8524C44.7176 17.8524 45.5031 18.1671 46.1595 18.7965C46.816 19.4215 47.1442 20.2394 47.1442 21.25C47.1442 22.2606 46.816 23.0807 46.1595 23.7101C45.5075 24.3395 44.722 24.6543 43.803 24.6543C42.8577 24.6543 42.0635 24.3351 41.4202 23.6968C40.7813 23.0585 40.4618 22.2429 40.4618 21.25ZM41.7812 21.25C41.7812 21.8839 41.976 22.4047 42.3654 22.8125C42.7593 23.2159 43.2385 23.4176 43.803 23.4176C44.3763 23.4176 44.8554 23.2137 45.2406 22.8059C45.63 22.3936 45.8248 21.875 45.8248 21.25C45.8248 20.6206 45.6278 20.1019 45.234 19.6941C44.8401 19.2863 44.3631 19.0824 43.803 19.0824C43.2166 19.0824 42.733 19.2908 42.3523 19.7074C41.9716 20.1241 41.7812 20.6383 41.7812 21.25Z" fill="#20231F"/>
<path d="M48.1682 21.25C48.1682 20.2571 48.492 19.4437 49.1397 18.8098C49.7874 18.1715 50.5773 17.8524 51.5094 17.8524C52.424 17.8524 53.2095 18.1671 53.8659 18.7965C54.5224 19.4215 54.8506 20.2394 54.8506 21.25C54.8506 22.2606 54.5224 23.0807 53.8659 23.7101C53.2139 24.3395 52.4284 24.6543 51.5094 24.6543C50.5641 24.6543 49.7699 24.3351 49.1266 23.6968C48.4877 23.0585 48.1682 22.2429 48.1682 21.25ZM49.4876 21.25C49.4876 21.8839 49.6823 22.4047 50.0718 22.8125C50.4657 23.2159 50.9449 23.4176 51.5094 23.4176C52.0826 23.4176 52.5618 23.2137 52.9469 22.8059C53.3364 22.3936 53.5312 21.875 53.5312 21.25C53.5312 20.6206 53.3342 20.1019 52.9404 19.6941C52.5465 19.2863 52.0695 19.0824 51.5094 19.0824C50.923 19.0824 50.4394 19.2908 50.0587 19.7074C49.678 20.1241 49.4876 20.6383 49.4876 21.25Z" fill="#20231F"/>
<path d="M56.787 23.3112V16.3763H55.6645V15.2194H58.7038C59.5396 15.2194 60.1654 15.2704 60.5811 15.3723C61.0012 15.4743 61.371 15.7336 61.6905 16.1503C62.0099 16.5625 62.1697 17.0479 62.1697 17.6064C62.1697 18.0363 62.0734 18.4242 61.8808 18.7699C61.6927 19.1157 61.4148 19.3772 61.0472 19.5545C61.5548 19.7318 61.9443 20.0266 62.2156 20.4388C62.4913 20.8466 62.6292 21.3143 62.6292 21.8418C62.6292 22.2983 62.5263 22.7128 62.3206 23.0851C62.1193 23.4574 61.8502 23.7456 61.5132 23.9495C61.1763 24.1534 60.8065 24.2908 60.4039 24.3617C60.0057 24.4326 59.4608 24.4681 58.7694 24.4681H55.6645V23.3112H56.787ZM58.1655 19.0691H59.0254C59.6818 19.0691 60.1391 18.9539 60.3973 18.7234C60.6599 18.4885 60.7912 18.1449 60.7912 17.6928C60.7912 16.8152 60.2026 16.3763 59.0254 16.3763H58.1655V19.0691ZM58.1655 23.3112H58.6841C59.3624 23.3112 59.8591 23.2779 60.1741 23.2114C60.4892 23.1405 60.7452 22.9787 60.9422 22.7261C61.1435 22.469 61.2441 22.141 61.2441 21.742C61.2441 21.3785 61.1478 21.0749 60.9553 20.8311C60.7671 20.5829 60.522 20.4189 60.2201 20.3391C59.9225 20.2549 59.5002 20.2128 58.9532 20.2128H58.1655V23.3112Z" fill="#20231F"/>
<path d="M70.1649 23.3444V24.4681H67.9855V23.6835C67.3816 24.2775 66.7077 24.5745 65.9638 24.5745C65.3861 24.5745 64.8829 24.3839 64.454 24.0027C64.0295 23.6215 63.8173 23.1339 63.8173 22.5399C63.8173 21.9415 64.0426 21.445 64.4934 21.0505C64.9485 20.656 65.4955 20.4588 66.1344 20.4588C66.7296 20.4588 67.3051 20.6405 67.8608 21.004V20.3657C67.8608 20.0377 67.8302 19.785 67.7689 19.6077C67.7077 19.4304 67.5633 19.2708 67.3357 19.129C67.1125 18.9871 66.8193 18.9162 66.4561 18.9162C65.8303 18.9162 65.3774 19.1689 65.0973 19.6742L63.9026 19.3551C64.4321 18.3533 65.3467 17.8524 66.6464 17.8524C67.1234 17.8524 67.5348 17.9189 67.8805 18.0519C68.2306 18.1804 68.491 18.3488 68.6617 18.5572C68.8323 18.7611 68.9461 18.9827 69.003 19.2221C69.0643 19.4614 69.0949 19.8426 69.0949 20.3657V23.3444H70.1649ZM67.8608 22.0745C67.3226 21.6489 66.7777 21.4362 66.2263 21.4362C65.8806 21.4362 65.5918 21.5381 65.3599 21.742C65.1279 21.9459 65.012 22.2097 65.012 22.5332C65.012 22.8347 65.1126 23.0873 65.3139 23.2912C65.5196 23.4951 65.7975 23.5971 66.1476 23.5971C66.7515 23.5971 67.3226 23.34 67.8608 22.8258V22.0745Z" fill="#20231F"/>
<path d="M71.9175 23.3444V19.1556H70.6375V18.0319H72.9153V19.4814C73.0553 19.1046 73.25 18.7921 73.4995 18.5439C73.7489 18.2957 74.0115 18.1316 74.2872 18.0519C74.5673 17.9721 74.948 17.9322 75.4294 17.9322H75.7576V19.2088H75.5081C74.8736 19.2088 74.3988 19.2731 74.0837 19.4016C73.773 19.5301 73.5411 19.7651 73.3879 20.1064C73.2391 20.4433 73.1647 21.0505 73.1647 21.9282V23.3444H74.5498V24.4681H70.6375V23.3444H71.9175Z" fill="#20231F"/>
</svg>
