<svg width="30" height="27" viewBox="0 0 30 27" fill="none" xmlns="http://www.w3.org/2000/svg">
<path d="M8.24848 12.7647L8.24848 6.88235C8.24848 3.63362 10.8821 1 14.1308 1C17.3796 1 20.0132 3.63362 20.0132 6.88235V12.7647M2.81342 26H25.4482C26.3456 26 26.7943 26 27.0565 25.7151C27.3186 25.4302 27.2814 24.983 27.2069 24.0887L26.1652 11.5893C26.0372 10.0532 25.9732 9.28512 25.4667 8.81903C24.9601 8.35294 24.1894 8.35294 22.648 8.35294H5.61365C4.07224 8.35294 3.30153 8.35294 2.79499 8.81903C2.28844 9.28512 2.22444 10.0532 2.09643 11.5893L1.05481 24.0887C0.980282 24.983 0.943019 25.4302 1.20517 25.7151C1.46732 26 1.91602 26 2.81342 26Z" stroke="#20231F" stroke-linecap="round"/>
</svg>
