<svg width="15" height="15" viewBox="0 0 15 15" fill="none" xmlns="http://www.w3.org/2000/svg">
<path d="M11.8738 9.54044L13.9627 11.6294C14.2594 11.9261 14.2594 12.4072 13.9627 12.704C12.3583 14.3083 9.81844 14.4888 8.00332 13.1275L7.08022 12.4352C5.36876 11.1516 3.84843 9.63124 2.56483 7.91978L1.87251 6.99668C0.511172 5.18156 0.691678 2.64166 2.29603 1.03731C2.59277 0.740561 3.07389 0.74056 3.37064 1.03731L5.45956 3.12623C5.85008 3.51675 5.85008 4.14992 5.45956 4.54044L4.72645 5.27355C4.59122 5.40878 4.55769 5.61538 4.64322 5.78644C5.63211 7.76421 7.23579 9.36789 9.21356 10.3568C9.38462 10.4423 9.59122 10.4088 9.72645 10.2735L10.4596 9.54044C10.8501 9.14992 11.4832 9.14992 11.8738 9.54044Z" stroke="#20231F" stroke-width="0.5"/>
</svg>
