<svg width="23" height="22" viewBox="0 0 23 22" fill="none" xmlns="http://www.w3.org/2000/svg">
<path d="M22.286 10.7143C22.286 16.6316 17.489 21.4286 11.5717 21.4286C5.65437 21.4286 0.857422 16.6316 0.857422 10.7143C0.857422 4.79695 5.65437 0 11.5717 0C17.489 0 22.286 4.79695 22.286 10.7143Z" fill="#5D5D5D"/>
<path d="M15.0322 7.00696C14.8483 6.85968 14.6005 6.85714 14.5546 6.85714C14.2097 6.86222 13.8087 6.99426 11.456 7.9668C10.6769 8.28929 9.09573 8.96473 6.75842 9.9779C6.26797 10.1734 6.03552 10.3715 6.00487 10.6229C5.94867 11.0774 6.41868 11.2247 6.87593 11.3669L7.04963 11.4227C7.39448 11.5345 8.02542 11.7224 8.37538 11.73C8.68957 11.73 9.03442 11.6132 9.39715 11.3669C10.6412 10.5315 11.433 10.0058 11.9311 9.67827C11.5327 10.0566 11.0678 10.4883 10.8225 10.7143C10.6233 10.8971 10.4828 11.0292 10.4521 11.0596C10.3908 11.1231 10.3295 11.1815 10.2708 11.2399C10.0102 11.4888 9.76754 11.7224 9.79564 12.0499C9.82374 12.3623 10.1098 12.5832 10.3219 12.7228C10.6488 12.9361 10.9094 13.1139 11.1725 13.2916C11.4611 13.4872 11.7472 13.6827 12.1202 13.9239C12.2121 13.9849 12.299 14.0458 12.3833 14.1067C12.7077 14.3353 13.0398 14.5714 13.4561 14.5714C13.4894 14.5714 13.5226 14.5689 13.5583 14.5664C13.8291 14.541 14.1842 14.3429 14.3374 13.5405C14.5954 12.1718 15.1267 9.07392 15.2519 7.76112C15.2672 7.61384 15.2468 7.44625 15.2366 7.37769C15.2264 7.31929 15.1957 7.139 15.0322 7.00696Z" fill="#F5F5F5"/>
</svg>
