<svg width="298" height="298" viewBox="0 0 298 298" fill="none" xmlns="http://www.w3.org/2000/svg">
<g filter="url(#filter0_d_326_202)">
<path d="M274 141.249C274 210.147 218.036 266 149 266C79.9644 266 24 210.147 24 141.249C24 72.3517 79.9644 16.499 149 16.499C218.036 16.499 274 72.3517 274 141.249Z" fill="#353535"/>
<path d="M261.5 141.249C261.5 203.258 211.132 253.525 149 253.525C86.868 253.525 36.5 203.258 36.5 141.249C36.5 79.2415 86.868 28.9741 149 28.9741C211.132 28.9741 261.5 79.2415 261.5 141.249Z" fill="#20231F"/>
<path d="M244 141.249C244 193.612 201.467 236.06 149 236.06C96.5329 236.06 54 193.612 54 141.249C54 88.8872 96.5329 46.4391 149 46.4391C201.467 46.4391 244 88.8872 244 141.249Z" fill="#835E37"/>
<path d="M109.054 105.311L107.804 118.784C107.804 118.784 28.302 43.185 24.8039 38.9436C21.3058 34.7021 30.0566 24.4726 35.0539 28.714C40.0512 32.9555 109.054 105.311 109.054 105.311Z" fill="#47382D"/>
<path d="M244 141.249C244 193.612 201.467 236.06 149 236.06C132.204 236.06 116.426 231.71 102.735 224.077C77.6747 187.069 82.6813 135.613 116.803 102.565C146.617 73.6894 189.841 67.4087 224.503 83.6993C236.734 99.6574 244 119.607 244 141.249Z" fill="#A57D48"/>
<path d="M184.893 154.68C194.816 164.583 198.916 176.547 194.051 181.403C189.186 186.258 177.197 182.166 167.274 172.263C157.351 162.36 153.251 150.395 158.116 145.54C162.981 140.684 174.969 144.776 184.893 154.68Z" fill="#7B6A5B"/>
<path d="M195.893 142.704C205.816 152.607 209.916 164.571 205.051 169.427C200.186 174.282 188.197 170.19 178.274 160.287C168.351 150.383 164.251 138.419 169.116 133.564C173.981 128.708 185.969 132.8 195.893 142.704Z" fill="#5E4E42"/>
<path d="M207.393 132.724C217.316 142.627 221.416 154.591 216.551 159.447C211.686 164.302 199.697 160.21 189.774 150.307C179.851 140.403 175.751 128.439 180.616 123.584C185.481 118.728 197.469 122.82 207.393 132.724Z" fill="#524337"/>
<path d="M218.393 122.036C228.316 131.94 232.416 143.904 227.551 148.76C222.686 153.615 210.697 149.523 200.774 139.62C190.851 129.716 186.751 117.752 191.616 112.896C196.481 108.041 208.469 112.133 218.393 122.036Z" fill="#47382D"/>
<path d="M110.556 99.0734L115.306 88.5943C115.306 88.5943 51.3048 20.45 45.5557 16.7381C39.8066 13.0261 31.8059 24.3386 35.8057 27.9656C39.8055 31.5926 110.556 99.0734 110.556 99.0734Z" fill="#47382D"/>
<path d="M70.8066 131.009C70.8066 133.076 69.1277 134.752 67.0566 134.752C64.9856 134.752 63.3066 133.076 63.3066 131.009C63.3066 128.943 64.9856 127.267 67.0566 127.267C69.1277 127.267 70.8066 128.943 70.8066 131.009Z" fill="#3E4824"/>
<path d="M84.5566 109.552C84.5566 111.619 84.5566 113.045 77.5566 113.045C69.8066 113.045 69.8066 111.619 69.8066 109.552C69.8066 107.485 69.8066 105.81 77.5566 105.81C84.5566 105.81 84.5566 107.485 84.5566 109.552Z" fill="#3E4824"/>
<path d="M78.2118 174.753C76.7473 176.215 75.7369 177.223 70.7871 172.284C65.3071 166.814 66.3175 165.806 67.7819 164.344C69.2464 162.883 70.4336 161.698 75.9137 167.167C80.8635 172.107 79.6762 173.292 78.2118 174.753Z" fill="#3E4824"/>
<path d="M176.712 219.664C175.247 221.125 174.237 222.134 169.287 217.194C163.807 211.725 164.817 210.716 166.282 209.255C167.746 207.793 168.934 206.608 174.414 212.077C179.363 217.017 178.176 218.202 176.712 219.664Z" fill="#3E4824"/>
<path d="M217.712 189.225C216.247 190.686 215.237 191.694 210.287 186.755C204.807 181.285 205.817 180.277 207.282 178.816C208.746 177.354 209.934 176.169 215.414 181.638C220.363 186.578 219.176 187.763 217.712 189.225Z" fill="#3E4824"/>
<path d="M189.585 78.3985C142.138 47.6754 92.3731 89.462 107.147 137.914H114.924C97.606 97.0079 145.408 54.7856 184.55 84.3676C184.55 84.3676 185.235 87.1628 184.197 88.3177C183.204 89.4214 180.486 89.1955 180.486 89.1955C141.432 64.7048 103.084 105.172 125.174 142.566C125.174 142.566 134.628 146.34 139.664 142.566C144.701 138.791 143.199 130.54 143.199 130.54C135.07 117.9 142.138 101.748 161.665 103.153C167.389 106.182 163.681 109.865 161.665 109.648C148.311 105.494 141.846 122.475 150.356 128.17C151.496 129.631 156.977 128.191 155.657 124.308C154.338 120.424 150.356 116.144 159.898 117.022C169.441 117.9 176.421 102.889 164.935 96.8324C153.448 90.7755 123.23 104.733 135.953 133.173C135.953 133.173 137.19 135.895 135.423 137.124C133.656 138.352 130.917 136.86 130.917 136.86C112.886 108.507 145.761 72.8683 176.333 95.4279C176.333 95.4279 185.434 98.588 190.47 91.9167C195.507 85.2454 189.585 78.3985 189.585 78.3985Z" fill="#BFA06F"/>
<path d="M75.8066 150.97C75.8066 153.036 74.1277 154.712 72.0566 154.712C69.9856 154.712 68.3066 153.036 68.3066 150.97C68.3066 148.903 69.9856 147.227 72.0566 147.227C74.1277 147.227 75.8066 148.903 75.8066 150.97Z" fill="#3E4824"/>
<path d="M212.307 97.0773C212.307 99.1443 210.628 100.82 208.557 100.82C206.486 100.82 204.807 99.1443 204.807 97.0773C204.807 95.0104 206.486 93.3348 208.557 93.3348C210.628 93.3348 212.307 95.0104 212.307 97.0773Z" fill="#3E4824"/>
<path d="M157.907 150.873C172.942 165.878 172.942 190.207 157.907 205.212C142.872 220.217 118.495 220.217 103.46 205.212C88.4249 190.207 77.9958 155.469 93.0309 140.463C108.066 125.458 142.872 135.868 157.907 150.873Z" fill="#EEE9D3"/>
<path d="M153.307 178.165C153.307 190.567 143.233 200.62 130.807 200.62C118.38 200.62 108.307 190.567 108.307 178.165C108.307 165.764 118.38 155.71 130.807 155.71C143.233 155.71 153.307 165.764 153.307 178.165Z" fill="#E0D1A0"/>
<path d="M202.307 198.375C202.307 200.442 200.628 202.117 198.557 202.117C196.486 202.117 194.807 200.442 194.807 198.375C194.807 196.308 196.486 194.632 198.557 194.632C200.628 194.632 202.307 196.308 202.307 198.375Z" fill="#3E4824"/>
<path d="M187.307 208.854C187.307 210.921 185.628 212.596 183.557 212.596C181.486 212.596 179.807 210.921 179.807 208.854C179.807 206.787 181.486 205.111 183.557 205.111C185.628 205.111 187.307 206.787 187.307 208.854Z" fill="#3E4824"/>
<path d="M91.8066 122.526C91.8066 124.593 90.1277 126.269 88.0566 126.269C85.9856 126.269 84.3066 124.593 84.3066 122.526C84.3066 120.46 85.9856 118.784 88.0566 118.784C90.1277 118.784 91.8066 120.46 91.8066 122.526Z" fill="#3E4824"/>
</g>
<defs>
<filter id="filter0_d_326_202" x="0" y="0" width="298" height="298" filterUnits="userSpaceOnUse" color-interpolation-filters="sRGB">
<feFlood flood-opacity="0" result="BackgroundImageFix"/>
<feColorMatrix in="SourceAlpha" type="matrix" values="0 0 0 0 0 0 0 0 0 0 0 0 0 0 0 0 0 0 127 0" result="hardAlpha"/>
<feOffset dy="8"/>
<feGaussianBlur stdDeviation="12"/>
<feComposite in2="hardAlpha" operator="out"/>
<feColorMatrix type="matrix" values="0 0 0 0 0 0 0 0 0 0 0 0 0 0 0 0 0 0 0.15 0"/>
<feBlend mode="normal" in2="BackgroundImageFix" result="effect1_dropShadow_326_202"/>
<feBlend mode="normal" in="SourceGraphic" in2="effect1_dropShadow_326_202" result="shape"/>
</filter>
</defs>
</svg>
