<svg width="23" height="15" viewBox="0 0 23 15" fill="none" xmlns="http://www.w3.org/2000/svg">
<path d="M22.1282 13.637C21.1186 9.96198 18.3449 7.92884 17.1991 7.22318C21.2199 4.29574 21.2968 0.92814 21.2968 0.781419C21.2968 0.687098 21.2618 0.599764 21.1955 0.53339C21.1291 0.467016 21.0418 0.428589 20.9474 0.428589H17.5798C17.4261 0.428589 17.2899 0.529896 17.2445 0.676618C16.1476 4.22588 13.9223 5.21101 13.0175 5.46951V0.777925C13.0175 0.58579 12.8603 0.428589 12.6682 0.428589H9.38789C9.19576 0.428589 9.03856 0.58579 9.03856 0.777925V9.24584C7.99055 8.73232 5.37052 6.8459 5.07359 0.763952C5.06311 0.578804 4.9094 0.432082 4.72425 0.432082H1.0632C0.871069 0.432082 0.713867 0.589284 0.713867 0.781419V2.11938C0.713867 8.71485 6.07968 14.0807 12.6717 14.0807C12.8638 14.0807 13.021 13.9235 13.021 13.7313V9.51483C16.696 10.1856 17.7196 13.6719 17.765 13.8222C17.8069 13.9724 17.9466 14.0772 18.1003 14.0772H21.7928C21.9011 14.0772 22.0059 14.0248 22.0688 13.9409C22.1387 13.8536 22.1596 13.7418 22.1282 13.637Z" fill="#5D5D5D"/>
</svg>
