<svg width="22" height="22" viewBox="0 0 22 22" fill="none" xmlns="http://www.w3.org/2000/svg">
<path d="M10.7147 21.4286C16.632 21.4286 21.429 16.6316 21.429 10.7143C21.429 4.79695 16.632 0 10.7147 0C4.79734 0 0.000390205 4.79695 0.000390205 10.7143C0.000390205 12.6714 0.525128 14.5059 1.44159 16.0849L0.0120466 21.42C-0.056264 21.675 0.177021 21.9083 0.431959 21.8399L6.01295 20.3445C7.43241 21.0388 9.02803 21.4286 10.7147 21.4286Z" fill="#5D5D5D"/>
<path fill-rule="evenodd" clip-rule="evenodd" d="M13.1364 15.2264C13.2188 15.2394 15.1125 15.5397 15.9208 14.1193L15.981 13.1596L13.9345 12.1664C13.8341 12.2768 13.7138 12.4038 13.5767 12.5476L13.483 12.6446C12.9078 13.2432 12.734 13.4238 12.3996 13.4873C12.0852 13.5508 11.8244 13.4639 11.4565 13.2866C10.3363 12.7483 9.59391 12.036 9.51365 11.9557C9.01539 11.4642 8.58067 10.899 8.21951 10.2837C8.20279 10.257 8.18942 10.2269 8.18273 10.1934C8.14594 10.0362 8.10916 9.82557 8.14929 9.5848C8.21617 9.17683 8.44691 8.79227 8.82813 8.43445L7.99546 6H7.19289C6.89193 6.18058 5.68473 7.03665 6.07933 8.92603C6.26994 9.34403 8.58401 14.1795 13.1352 15.2262L13.1364 15.2264Z" fill="#F5F5F5"/>
</svg>
